<mxfile host="app.diagrams.net" modified="2023-04-03T10:06:24.185Z" agent="Mozilla/5.0 (Macintosh; Intel Mac OS X 10.15; rv:109.0) Gecko/20100101 Firefox/111.0" etag="tJ9MdDYJYhLWNvwhS53_" version="21.1.0" type="device">
  <diagram id="G7K_4BS86Fn3U5dKpeIK" name="Page-1">
    <mxGraphModel dx="1876" dy="658" grid="1" gridSize="10" guides="1" tooltips="1" connect="1" arrows="1" fold="1" page="1" pageScale="1" pageWidth="850" pageHeight="1100" math="0" shadow="0">
      <root>
        <mxCell id="0" />
        <mxCell id="1" parent="0" />
        <mxCell id="LSD-pLdR1hRc6_XveAeA-17" style="edgeStyle=none;rounded=0;orthogonalLoop=1;jettySize=auto;html=1;exitX=0.5;exitY=0;exitDx=0;exitDy=0;exitPerimeter=0;endArrow=oval;endFill=1;" parent="1" source="LSD-pLdR1hRc6_XveAeA-19" edge="1">
          <mxGeometry relative="1" as="geometry">
            <mxPoint x="421.33333333333326" y="400" as="targetPoint" />
          </mxGeometry>
        </mxCell>
        <mxCell id="LSD-pLdR1hRc6_XveAeA-18" style="edgeStyle=none;rounded=0;orthogonalLoop=1;jettySize=auto;html=1;endArrow=oval;endFill=1;" parent="1" source="LSD-pLdR1hRc6_XveAeA-19" edge="1">
          <mxGeometry relative="1" as="geometry">
            <mxPoint x="421" y="490" as="targetPoint" />
          </mxGeometry>
        </mxCell>
        <mxCell id="LSD-pLdR1hRc6_XveAeA-19" value="Postgres" style="strokeWidth=2;html=1;shape=mxgraph.flowchart.database;whiteSpace=wrap;" parent="1" vertex="1">
          <mxGeometry x="386" y="400" width="70" height="70" as="geometry" />
        </mxCell>
        <mxCell id="LSD-pLdR1hRc6_XveAeA-20" value="Tigerbeetle" style="strokeWidth=2;html=1;shape=mxgraph.flowchart.database;whiteSpace=wrap;" parent="1" vertex="1">
          <mxGeometry x="386" y="180" width="80" height="70" as="geometry" />
        </mxCell>
        <mxCell id="LSD-pLdR1hRc6_XveAeA-21" value="Redis" style="strokeWidth=2;html=1;shape=mxgraph.flowchart.database;whiteSpace=wrap;" parent="1" vertex="1">
          <mxGeometry x="386" y="280" width="70" height="70" as="geometry" />
        </mxCell>
        <mxCell id="LSD-pLdR1hRc6_XveAeA-22" style="edgeStyle=none;rounded=0;orthogonalLoop=1;jettySize=auto;html=1;entryX=0;entryY=0.5;entryDx=0;entryDy=0;entryPerimeter=0;endArrow=none;endFill=0;" parent="1" source="LSD-pLdR1hRc6_XveAeA-24" target="LSD-pLdR1hRc6_XveAeA-19" edge="1">
          <mxGeometry relative="1" as="geometry" />
        </mxCell>
        <mxCell id="LSD-pLdR1hRc6_XveAeA-23" style="edgeStyle=none;rounded=0;orthogonalLoop=1;jettySize=auto;html=1;endArrow=oval;endFill=1;" parent="1" source="LSD-pLdR1hRc6_XveAeA-24" edge="1">
          <mxGeometry relative="1" as="geometry">
            <mxPoint x="180" y="450" as="targetPoint" />
          </mxGeometry>
        </mxCell>
        <mxCell id="LSD-pLdR1hRc6_XveAeA-24" value="cloud-nine-wallet-auth" style="rounded=0;whiteSpace=wrap;html=1;" parent="1" vertex="1">
          <mxGeometry x="200" y="420" width="100" height="60" as="geometry" />
        </mxCell>
        <mxCell id="LSD-pLdR1hRc6_XveAeA-25" style="edgeStyle=none;rounded=0;orthogonalLoop=1;jettySize=auto;html=1;entryX=0;entryY=0.5;entryDx=0;entryDy=0;entryPerimeter=0;endArrow=none;endFill=0;" parent="1" source="LSD-pLdR1hRc6_XveAeA-32" target="LSD-pLdR1hRc6_XveAeA-20" edge="1">
          <mxGeometry relative="1" as="geometry" />
        </mxCell>
        <mxCell id="LSD-pLdR1hRc6_XveAeA-26" style="edgeStyle=none;rounded=0;orthogonalLoop=1;jettySize=auto;html=1;exitX=1;exitY=0.5;exitDx=0;exitDy=0;entryX=0;entryY=0.5;entryDx=0;entryDy=0;entryPerimeter=0;endArrow=none;endFill=0;" parent="1" source="LSD-pLdR1hRc6_XveAeA-32" target="LSD-pLdR1hRc6_XveAeA-21" edge="1">
          <mxGeometry relative="1" as="geometry" />
        </mxCell>
        <mxCell id="LSD-pLdR1hRc6_XveAeA-27" style="edgeStyle=none;rounded=0;orthogonalLoop=1;jettySize=auto;html=1;entryX=-0.01;entryY=0.189;entryDx=0;entryDy=0;entryPerimeter=0;endArrow=none;endFill=0;exitX=1;exitY=0.75;exitDx=0;exitDy=0;" parent="1" source="LSD-pLdR1hRc6_XveAeA-32" target="LSD-pLdR1hRc6_XveAeA-19" edge="1">
          <mxGeometry relative="1" as="geometry" />
        </mxCell>
        <mxCell id="LSD-pLdR1hRc6_XveAeA-28" style="edgeStyle=none;rounded=0;orthogonalLoop=1;jettySize=auto;html=1;exitX=0.5;exitY=1;exitDx=0;exitDy=0;entryX=0.3;entryY=0;entryDx=0;entryDy=0;endArrow=classic;endFill=1;entryPerimeter=0;" parent="1" source="LSD-pLdR1hRc6_XveAeA-32" target="LSD-pLdR1hRc6_XveAeA-24" edge="1">
          <mxGeometry relative="1" as="geometry" />
        </mxCell>
        <mxCell id="LSD-pLdR1hRc6_XveAeA-29" style="edgeStyle=none;rounded=0;orthogonalLoop=1;jettySize=auto;html=1;exitX=0;exitY=0.25;exitDx=0;exitDy=0;endArrow=oval;endFill=1;" parent="1" source="LSD-pLdR1hRc6_XveAeA-32" edge="1">
          <mxGeometry relative="1" as="geometry">
            <mxPoint x="161" y="275" as="targetPoint" />
          </mxGeometry>
        </mxCell>
        <mxCell id="LSD-pLdR1hRc6_XveAeA-30" style="edgeStyle=none;rounded=0;orthogonalLoop=1;jettySize=auto;html=1;exitX=0;exitY=0.75;exitDx=0;exitDy=0;endArrow=oval;endFill=1;" parent="1" source="LSD-pLdR1hRc6_XveAeA-32" edge="1">
          <mxGeometry relative="1" as="geometry">
            <mxPoint x="161" y="305" as="targetPoint" />
          </mxGeometry>
        </mxCell>
        <mxCell id="LSD-pLdR1hRc6_XveAeA-31" style="edgeStyle=none;html=1;exitX=0.25;exitY=1;exitDx=0;exitDy=0;entryX=0.86;entryY=0;entryDx=0;entryDy=0;entryPerimeter=0;" parent="1" source="LSD-pLdR1hRc6_XveAeA-32" target="LSD-pLdR1hRc6_XveAeA-68" edge="1">
          <mxGeometry relative="1" as="geometry" />
        </mxCell>
        <mxCell id="LSD-pLdR1hRc6_XveAeA-32" value="cloud-nine-wallet-backend" style="rounded=0;whiteSpace=wrap;html=1;" parent="1" vertex="1">
          <mxGeometry x="181" y="260" width="100" height="60" as="geometry" />
        </mxCell>
        <mxCell id="LSD-pLdR1hRc6_XveAeA-33" value="" style="edgeStyle=none;rounded=0;orthogonalLoop=1;jettySize=auto;html=1;endArrow=classic;endFill=1;exitX=0.297;exitY=1.022;exitDx=0;exitDy=0;exitPerimeter=0;" parent="1" source="LSD-pLdR1hRc6_XveAeA-36" target="LSD-pLdR1hRc6_XveAeA-32" edge="1">
          <mxGeometry relative="1" as="geometry" />
        </mxCell>
        <mxCell id="LSD-pLdR1hRc6_XveAeA-34" style="edgeStyle=none;rounded=0;orthogonalLoop=1;jettySize=auto;html=1;endArrow=classic;endFill=1;exitX=0.905;exitY=1.009;exitDx=0;exitDy=0;exitPerimeter=0;entryX=0.9;entryY=0;entryDx=0;entryDy=0;entryPerimeter=0;" parent="1" source="LSD-pLdR1hRc6_XveAeA-36" target="LSD-pLdR1hRc6_XveAeA-24" edge="1">
          <mxGeometry relative="1" as="geometry">
            <mxPoint x="291" y="340" as="targetPoint" />
          </mxGeometry>
        </mxCell>
        <mxCell id="LSD-pLdR1hRc6_XveAeA-35" style="edgeStyle=none;rounded=0;orthogonalLoop=1;jettySize=auto;html=1;endArrow=oval;endFill=1;" parent="1" source="LSD-pLdR1hRc6_XveAeA-36" edge="1">
          <mxGeometry relative="1" as="geometry">
            <mxPoint x="181" y="210" as="targetPoint" />
          </mxGeometry>
        </mxCell>
        <mxCell id="LSD-pLdR1hRc6_XveAeA-36" value="cloud-nine-wallet" style="rounded=0;whiteSpace=wrap;html=1;" parent="1" vertex="1">
          <mxGeometry x="201" y="180" width="100" height="60" as="geometry" />
        </mxCell>
        <mxCell id="LSD-pLdR1hRc6_XveAeA-37" style="edgeStyle=none;rounded=0;orthogonalLoop=1;jettySize=auto;html=1;entryX=1;entryY=0.5;entryDx=0;entryDy=0;entryPerimeter=0;endArrow=none;endFill=0;" parent="1" source="LSD-pLdR1hRc6_XveAeA-39" target="LSD-pLdR1hRc6_XveAeA-19" edge="1">
          <mxGeometry relative="1" as="geometry" />
        </mxCell>
        <mxCell id="LSD-pLdR1hRc6_XveAeA-38" style="edgeStyle=none;rounded=0;orthogonalLoop=1;jettySize=auto;html=1;endArrow=oval;endFill=1;" parent="1" source="LSD-pLdR1hRc6_XveAeA-39" edge="1">
          <mxGeometry relative="1" as="geometry">
            <mxPoint x="651" y="450" as="targetPoint" />
          </mxGeometry>
        </mxCell>
        <mxCell id="LSD-pLdR1hRc6_XveAeA-39" value="happy-life-bank-auth" style="rounded=0;whiteSpace=wrap;html=1;" parent="1" vertex="1">
          <mxGeometry x="531" y="420" width="100" height="60" as="geometry" />
        </mxCell>
        <mxCell id="LSD-pLdR1hRc6_XveAeA-40" style="edgeStyle=none;rounded=0;orthogonalLoop=1;jettySize=auto;html=1;entryX=1;entryY=0.5;entryDx=0;entryDy=0;entryPerimeter=0;endArrow=none;endFill=0;" parent="1" source="LSD-pLdR1hRc6_XveAeA-47" target="LSD-pLdR1hRc6_XveAeA-20" edge="1">
          <mxGeometry relative="1" as="geometry" />
        </mxCell>
        <mxCell id="LSD-pLdR1hRc6_XveAeA-41" style="edgeStyle=none;rounded=0;orthogonalLoop=1;jettySize=auto;html=1;entryX=1;entryY=0.5;entryDx=0;entryDy=0;entryPerimeter=0;endArrow=none;endFill=0;exitX=0;exitY=0.5;exitDx=0;exitDy=0;" parent="1" source="LSD-pLdR1hRc6_XveAeA-47" target="LSD-pLdR1hRc6_XveAeA-21" edge="1">
          <mxGeometry relative="1" as="geometry" />
        </mxCell>
        <mxCell id="LSD-pLdR1hRc6_XveAeA-42" style="edgeStyle=none;rounded=0;orthogonalLoop=1;jettySize=auto;html=1;entryX=1;entryY=0.15;entryDx=0;entryDy=0;entryPerimeter=0;endArrow=none;endFill=0;exitX=0;exitY=0.75;exitDx=0;exitDy=0;" parent="1" source="LSD-pLdR1hRc6_XveAeA-47" target="LSD-pLdR1hRc6_XveAeA-19" edge="1">
          <mxGeometry relative="1" as="geometry" />
        </mxCell>
        <mxCell id="LSD-pLdR1hRc6_XveAeA-43" style="edgeStyle=none;rounded=0;orthogonalLoop=1;jettySize=auto;html=1;exitX=1;exitY=0.25;exitDx=0;exitDy=0;endArrow=oval;endFill=1;" parent="1" source="LSD-pLdR1hRc6_XveAeA-47" edge="1">
          <mxGeometry relative="1" as="geometry">
            <mxPoint x="671" y="275" as="targetPoint" />
          </mxGeometry>
        </mxCell>
        <mxCell id="LSD-pLdR1hRc6_XveAeA-44" style="edgeStyle=none;rounded=0;orthogonalLoop=1;jettySize=auto;html=1;exitX=1;exitY=0.75;exitDx=0;exitDy=0;endArrow=oval;endFill=1;" parent="1" source="LSD-pLdR1hRc6_XveAeA-47" edge="1">
          <mxGeometry relative="1" as="geometry">
            <mxPoint x="671" y="305" as="targetPoint" />
          </mxGeometry>
        </mxCell>
        <mxCell id="LSD-pLdR1hRc6_XveAeA-45" style="edgeStyle=none;html=1;exitX=0.25;exitY=1;exitDx=0;exitDy=0;" parent="1" source="LSD-pLdR1hRc6_XveAeA-47" edge="1">
          <mxGeometry relative="1" as="geometry">
            <mxPoint x="576" y="420" as="targetPoint" />
          </mxGeometry>
        </mxCell>
        <mxCell id="LSD-pLdR1hRc6_XveAeA-46" style="edgeStyle=none;html=1;exitX=0.75;exitY=1;exitDx=0;exitDy=0;entryX=0.25;entryY=0;entryDx=0;entryDy=0;" parent="1" source="LSD-pLdR1hRc6_XveAeA-47" target="LSD-pLdR1hRc6_XveAeA-71" edge="1">
          <mxGeometry relative="1" as="geometry" />
        </mxCell>
        <mxCell id="LSD-pLdR1hRc6_XveAeA-47" value="happy-life-bank-backend" style="rounded=0;whiteSpace=wrap;html=1;" parent="1" vertex="1">
          <mxGeometry x="551" y="260" width="100" height="60" as="geometry" />
        </mxCell>
        <mxCell id="LSD-pLdR1hRc6_XveAeA-48" value="" style="edgeStyle=none;rounded=0;orthogonalLoop=1;jettySize=auto;html=1;endArrow=classic;endFill=1;exitX=0.705;exitY=0.996;exitDx=0;exitDy=0;exitPerimeter=0;" parent="1" source="LSD-pLdR1hRc6_XveAeA-51" target="LSD-pLdR1hRc6_XveAeA-47" edge="1">
          <mxGeometry relative="1" as="geometry" />
        </mxCell>
        <mxCell id="LSD-pLdR1hRc6_XveAeA-49" style="edgeStyle=none;rounded=0;orthogonalLoop=1;jettySize=auto;html=1;entryX=0.09;entryY=0;entryDx=0;entryDy=0;entryPerimeter=0;endArrow=classic;endFill=1;exitX=0.097;exitY=1.003;exitDx=0;exitDy=0;exitPerimeter=0;" parent="1" source="LSD-pLdR1hRc6_XveAeA-51" target="LSD-pLdR1hRc6_XveAeA-39" edge="1">
          <mxGeometry relative="1" as="geometry">
            <mxPoint x="540" y="670" as="sourcePoint" />
          </mxGeometry>
        </mxCell>
        <mxCell id="LSD-pLdR1hRc6_XveAeA-50" style="edgeStyle=none;rounded=0;orthogonalLoop=1;jettySize=auto;html=1;exitX=1;exitY=0.5;exitDx=0;exitDy=0;endArrow=oval;endFill=1;" parent="1" source="LSD-pLdR1hRc6_XveAeA-51" edge="1">
          <mxGeometry relative="1" as="geometry">
            <mxPoint x="651" y="210" as="targetPoint" />
          </mxGeometry>
        </mxCell>
        <mxCell id="LSD-pLdR1hRc6_XveAeA-51" value="happy-life-bank" style="rounded=0;whiteSpace=wrap;html=1;" parent="1" vertex="1">
          <mxGeometry x="531" y="180" width="100" height="60" as="geometry" />
        </mxCell>
        <mxCell id="LSD-pLdR1hRc6_XveAeA-52" value="&lt;div&gt;(b) Admin&lt;/div&gt;" style="text;html=1;align=right;verticalAlign=middle;whiteSpace=wrap;rounded=0;" parent="1" vertex="1">
          <mxGeometry x="91" y="260" width="60" height="30" as="geometry" />
        </mxCell>
        <mxCell id="LSD-pLdR1hRc6_XveAeA-53" value="&lt;div&gt;(c) Open Payments&lt;/div&gt;" style="text;html=1;align=right;verticalAlign=middle;whiteSpace=wrap;rounded=0;" parent="1" vertex="1">
          <mxGeometry x="31" y="290" width="120" height="30" as="geometry" />
        </mxCell>
        <mxCell id="LSD-pLdR1hRc6_XveAeA-54" style="edgeStyle=none;rounded=0;orthogonalLoop=1;jettySize=auto;html=1;endArrow=oval;endFill=1;" parent="1" source="LSD-pLdR1hRc6_XveAeA-55" edge="1">
          <mxGeometry relative="1" as="geometry">
            <mxPoint x="180" y="530" as="targetPoint" />
          </mxGeometry>
        </mxCell>
        <mxCell id="LSD-pLdR1hRc6_XveAeA-55" value="cloud-nine-wallet-signatures" style="rounded=0;whiteSpace=wrap;html=1;" parent="1" vertex="1">
          <mxGeometry x="200" y="500" width="100" height="60" as="geometry" />
        </mxCell>
        <mxCell id="LSD-pLdR1hRc6_XveAeA-56" style="edgeStyle=none;rounded=0;orthogonalLoop=1;jettySize=auto;html=1;exitX=1;exitY=0.5;exitDx=0;exitDy=0;endArrow=oval;endFill=1;" parent="1" source="LSD-pLdR1hRc6_XveAeA-57" edge="1">
          <mxGeometry relative="1" as="geometry">
            <mxPoint x="651" y="530" as="targetPoint" />
          </mxGeometry>
        </mxCell>
        <mxCell id="LSD-pLdR1hRc6_XveAeA-57" value="happy-life-bank-signatures" style="rounded=0;whiteSpace=wrap;html=1;" parent="1" vertex="1">
          <mxGeometry x="531" y="500" width="100" height="60" as="geometry" />
        </mxCell>
        <mxCell id="LSD-pLdR1hRc6_XveAeA-58" value="&lt;div align=&quot;left&quot;&gt;(h) Admin&lt;/div&gt;" style="text;html=1;align=left;verticalAlign=middle;whiteSpace=wrap;rounded=0;" parent="1" vertex="1">
          <mxGeometry x="681" y="260" width="60" height="30" as="geometry" />
        </mxCell>
        <mxCell id="LSD-pLdR1hRc6_XveAeA-59" value="&lt;div&gt;(i) Open Payments&lt;/div&gt;" style="text;html=1;align=left;verticalAlign=middle;whiteSpace=wrap;rounded=0;" parent="1" vertex="1">
          <mxGeometry x="681" y="290" width="120" height="30" as="geometry" />
        </mxCell>
        <mxCell id="LSD-pLdR1hRc6_XveAeA-60" value="(m) Postgres Server" style="text;html=1;align=center;verticalAlign=middle;resizable=0;points=[];autosize=1;" parent="1" vertex="1">
          <mxGeometry x="401" y="495" width="130" height="30" as="geometry" />
        </mxCell>
        <mxCell id="LSD-pLdR1hRc6_XveAeA-61" value="&lt;div&gt;(a) User Interface &lt;br&gt;&lt;/div&gt;" style="text;html=1;align=right;verticalAlign=middle;whiteSpace=wrap;rounded=0;" parent="1" vertex="1">
          <mxGeometry x="51" y="195" width="120" height="30" as="geometry" />
        </mxCell>
        <mxCell id="LSD-pLdR1hRc6_XveAeA-62" value="&lt;div&gt;(g) User Interface&lt;br&gt;&lt;/div&gt;" style="text;html=1;align=left;verticalAlign=middle;whiteSpace=wrap;rounded=0;" parent="1" vertex="1">
          <mxGeometry x="661" y="195" width="120" height="30" as="geometry" />
        </mxCell>
        <mxCell id="LSD-pLdR1hRc6_XveAeA-63" value="&lt;div&gt;(e) Open Payments Auth&lt;br&gt;&lt;/div&gt;" style="text;html=1;align=right;verticalAlign=middle;whiteSpace=wrap;rounded=0;" parent="1" vertex="1">
          <mxGeometry x="30" y="435" width="140" height="30" as="geometry" />
        </mxCell>
        <mxCell id="LSD-pLdR1hRc6_XveAeA-64" value="&lt;div&gt;(f) Postman Signatures&lt;br&gt;&lt;/div&gt;" style="text;html=1;align=right;verticalAlign=middle;whiteSpace=wrap;rounded=0;" parent="1" vertex="1">
          <mxGeometry x="30" y="515" width="140" height="30" as="geometry" />
        </mxCell>
        <mxCell id="LSD-pLdR1hRc6_XveAeA-65" value="&lt;div&gt;(k) Open Payments Auth&lt;br&gt;&lt;/div&gt;" style="text;html=1;align=left;verticalAlign=middle;whiteSpace=wrap;rounded=0;" parent="1" vertex="1">
          <mxGeometry x="661" y="435" width="130" height="30" as="geometry" />
        </mxCell>
        <mxCell id="LSD-pLdR1hRc6_XveAeA-66" value="&lt;div&gt;(l) Postman Signatures&lt;br&gt;&lt;/div&gt;" style="text;html=1;align=left;verticalAlign=middle;whiteSpace=wrap;rounded=0;" parent="1" vertex="1">
          <mxGeometry x="661" y="515" width="130" height="30" as="geometry" />
        </mxCell>
        <mxCell id="LSD-pLdR1hRc6_XveAeA-67" style="edgeStyle=none;rounded=0;orthogonalLoop=1;jettySize=auto;html=1;endArrow=oval;endFill=1;" parent="1" source="LSD-pLdR1hRc6_XveAeA-68" edge="1">
          <mxGeometry relative="1" as="geometry">
            <mxPoint x="100" y="370" as="targetPoint" />
          </mxGeometry>
        </mxCell>
        <mxCell id="LSD-pLdR1hRc6_XveAeA-68" value="cloud-nine-wallet-admin" style="rounded=0;whiteSpace=wrap;html=1;" parent="1" vertex="1">
          <mxGeometry x="120" y="340" width="100" height="60" as="geometry" />
        </mxCell>
        <mxCell id="LSD-pLdR1hRc6_XveAeA-69" value="&lt;div&gt;(d) Rafiki Admin&lt;br&gt;&lt;/div&gt;" style="text;html=1;align=right;verticalAlign=middle;whiteSpace=wrap;rounded=0;" parent="1" vertex="1">
          <mxGeometry x="-49" y="355" width="140" height="30" as="geometry" />
        </mxCell>
        <mxCell id="LSD-pLdR1hRc6_XveAeA-70" style="edgeStyle=none;rounded=0;orthogonalLoop=1;jettySize=auto;html=1;exitX=1;exitY=0.5;exitDx=0;exitDy=0;endArrow=oval;endFill=1;" parent="1" source="LSD-pLdR1hRc6_XveAeA-71" edge="1">
          <mxGeometry relative="1" as="geometry">
            <mxPoint x="720" y="370" as="targetPoint" />
          </mxGeometry>
        </mxCell>
        <mxCell id="LSD-pLdR1hRc6_XveAeA-71" value="happy-life-bank-admin" style="rounded=0;whiteSpace=wrap;html=1;" parent="1" vertex="1">
          <mxGeometry x="600" y="340" width="100" height="60" as="geometry" />
        </mxCell>
        <mxCell id="LSD-pLdR1hRc6_XveAeA-72" value="&lt;div&gt;(j) Rafiki Admin&lt;br&gt;&lt;/div&gt;" style="text;html=1;align=left;verticalAlign=middle;whiteSpace=wrap;rounded=0;" parent="1" vertex="1">
          <mxGeometry x="730" y="355" width="130" height="30" as="geometry" />
        </mxCell>
      </root>
    </mxGraphModel>
  </diagram>
</mxfile>
